<svg data-v-423bf9ae="" xmlns="http://www.w3.org/2000/svg" viewBox="0 0 169.75239646260073 60" class="font"><!----><!----><!----><g data-v-423bf9ae="" id="1fcadf7c-d8a1-4b3d-acad-bbd4c475704a" fill="white" transform="matrix(3.8095240401933483,0,0,3.8095240401933483,1.1047606237616634,-10.666666892470538)"><path d="M9.63 2.80L9.63 2.80L9.63 2.80Q11.97 2.80 11.97 4.12L11.97 4.12L11.97 4.12Q11.97 4.68 11.54 5.37L11.54 5.37L11.54 5.37Q11.10 6.06 10.61 6.50L10.61 6.50L10.61 6.50Q10.11 6.94 9.87 6.94L9.87 6.94L9.87 6.94Q9.77 6.94 9.68 6.85L9.68 6.85L9.68 6.85Q9.59 6.76 9.59 6.62L9.59 6.62L9.59 6.62Q9.59 6.47 9.86 6.16L9.86 6.16L9.86 6.16Q10.14 5.85 10.14 5.70L10.14 5.70L10.14 5.70Q10.14 5.54 9.79 5.54L9.79 5.54L9.79 5.54Q8.88 5.54 6.84 6.29L6.84 6.29L6.84 6.29Q4.80 7.04 4.79 7.42L4.79 7.42L4.79 7.42Q4.80 7.52 5.16 7.52L5.16 7.52L5.16 7.52Q5.52 7.52 5.97 7.45L5.97 7.45L5.97 7.45Q6.43 7.38 6.66 7.38L6.66 7.38L6.66 7.38Q7.29 7.38 7.29 7.71L7.29 7.71L7.29 7.71Q7.29 7.90 7.08 8.01L7.08 8.01L7.08 8.01Q6.87 8.12 6.73 8.18L6.73 8.18L6.73 8.18Q6.58 8.25 6.31 8.35L6.31 8.35L6.31 8.35Q6.05 8.46 5.87 8.54L5.87 8.54L5.87 8.54Q5.70 8.62 5.36 8.78L5.36 8.78L4.80 9.02L4.80 9.02Q4.24 9.25 3.83 9.46L3.83 9.46L3.83 9.46Q3.42 9.67 3.13 9.81L3.13 9.81L3.13 9.81Q2.84 9.95 2.65 10.07L2.65 10.07L2.65 10.07Q2.45 10.18 2.27 10.29L2.27 10.29L2.27 10.29Q1.93 10.53 1.93 10.65L1.93 10.65L1.93 10.65Q1.93 10.93 2.38 10.93L2.38 10.93L2.38 10.93Q3.33 10.93 4.47 10.58L4.47 10.58L4.47 10.58Q5.60 10.23 6.39 9.89L6.39 9.89L6.39 9.89Q7.18 9.55 7.29 9.55L7.29 9.55L7.29 9.55Q7.78 9.56 8.11 10.04L8.11 10.04L8.11 10.04Q8.44 10.51 8.44 10.99L8.44 10.99L8.44 10.99Q8.44 11.66 7.52 12.40L7.52 12.40L7.52 12.40Q6.59 13.15 5.21 13.63L5.21 13.63L5.21 13.63Q3.84 14.11 2.63 14.11L2.63 14.11L2.63 14.11Q1.43 14.11 0.64 13.62L0.64 13.62L0.64 13.62Q-0.14 13.12-0.29 12.07L-0.29 12.07L-0.29 12.07Q-0.29 11.44 0.41 10.74L0.41 10.74L0.41 10.74Q1.11 10.04 2.03 9.53L2.03 9.53L2.03 9.53Q2.95 9.02 3.74 8.67L3.74 8.67L3.74 8.67Q4.52 8.32 4.80 8.27L4.80 8.27L4.80 8.27Q4.89 8.25 4.89 8.22L4.89 8.22L4.89 8.22Q4.89 8.11 4.72 8.08L4.72 8.08L4.72 8.08Q3.81 7.98 3.75 7.97L3.75 7.97L3.75 7.97Q3.00 7.80 2.69 7.30L2.69 7.30L2.69 7.30Q2.38 6.80 2.38 6.38L2.38 6.38L2.38 6.38Q2.38 5.53 3.60 4.68L3.60 4.68L3.60 4.68Q4.82 3.82 6.51 3.31L6.51 3.31L6.51 3.31Q8.20 2.80 9.63 2.80ZM12.73 13.59L12.73 13.59L12.73 13.59Q12.38 13.51 11.28 11.79L11.28 11.79L11.28 11.79Q11.06 11.98 10.65 12.36L10.65 12.36L10.65 12.36Q10.25 12.74 10.02 12.94L10.02 12.94L10.02 12.94Q9.80 13.13 9.51 13.37L9.51 13.37L9.51 13.37Q8.96 13.79 8.65 13.79L8.65 13.79L8.65 13.79Q8.34 13.79 8.11 13.51L8.11 13.51L8.11 13.51Q7.87 13.23 7.87 13.01L7.87 13.01L7.87 13.01Q7.87 11.83 10.33 10.18L10.33 10.18L10.33 10.18Q9.74 9.10 9.74 8.74L9.74 8.74L9.74 8.74Q9.74 8.67 9.82 8.53L9.82 8.53L9.82 8.53Q9.90 8.40 9.95 8.40L9.95 8.40L9.95 8.40Q10.00 8.40 10.01 8.46L10.01 8.46L10.01 8.46Q10.16 8.86 10.81 9.88L10.81 9.88L10.81 9.88Q11.63 9.37 12.38 9.00L12.38 9.00L12.38 9.00Q13.13 8.62 13.23 8.62L13.23 8.62L13.23 8.62Q13.33 8.62 13.38 8.63L13.38 8.63L13.38 8.63Q13.43 8.64 13.56 8.67L13.56 8.67L13.56 8.67Q13.69 8.69 13.79 8.75L13.79 8.75L13.79 8.75Q13.89 8.81 13.97 8.91L13.97 8.91L13.97 8.91Q14.06 9.02 14.06 9.16L14.06 9.16L14.06 9.16Q14.06 9.30 13.94 9.46L13.94 9.46L13.94 9.46Q13.83 9.63 13.58 9.86L13.58 9.86L13.58 9.86Q13.33 10.09 13.09 10.29L13.09 10.29L13.09 10.29Q12.25 10.98 11.76 11.37L11.76 11.37L11.76 11.37Q12.92 13.19 12.92 13.41L12.92 13.41L12.92 13.41Q12.92 13.57 12.73 13.59ZM10.30 17.54L10.30 17.54L10.30 17.54Q10.30 16.87 10.97 15.62L10.97 15.62L10.97 15.62Q11.63 14.38 12.57 13.06L12.57 13.06L12.57 13.06Q14.59 10.29 16.07 8.55L16.07 8.55L16.73 7.78L16.73 7.78Q16.94 7.59 17.15 7.59L17.15 7.59L17.15 7.59Q17.36 7.59 17.46 7.74L17.46 7.74L17.46 7.74Q17.56 7.90 17.56 8.02L17.56 8.02L17.56 8.02Q17.56 8.13 17.39 8.54L17.39 8.54L17.39 8.54Q17.23 8.95 17.01 9.47L17.01 9.47L17.01 9.47Q16.79 10.00 16.77 10.04L16.77 10.04L16.77 10.04Q16.74 10.09 16.74 10.15L16.74 10.15L16.74 10.15Q16.74 10.21 16.84 10.21L16.84 10.21L16.84 10.21Q16.93 10.21 17.28 9.90L17.28 9.90L17.28 9.90Q18.35 8.97 18.90 8.97L18.90 8.97L18.90 8.97Q19.89 8.97 19.89 9.98L19.89 9.98L19.89 9.98Q19.82 10.50 19.26 11.33L19.26 11.33L19.26 11.33Q18.70 12.15 17.86 12.83L17.86 12.83L17.86 12.83Q17.01 13.51 16.30 13.51L16.30 13.51L16.30 13.51Q15.99 13.51 15.76 13.36L15.76 13.36L15.76 13.36Q15.54 13.20 15.43 13.05L15.43 13.05L15.43 13.05Q15.32 12.89 15.28 12.89L15.28 12.89L15.28 12.89Q15.25 12.89 15.20 12.96L15.20 12.96L15.20 12.96Q15.15 13.03 12.47 17.44L12.47 17.44L12.47 17.44Q11.77 18.55 11.10 18.55L11.10 18.55L11.10 18.55Q10.75 18.55 10.53 18.23L10.53 18.23L10.53 18.23Q10.30 17.92 10.30 17.54ZM18.23 9.93L18.23 9.93L18.23 9.93Q17.88 9.93 16.75 11.02L16.75 11.02L16.75 11.02Q15.62 12.11 15.62 12.39L15.62 12.39L15.62 12.39Q15.62 12.42 15.68 12.42L15.68 12.42L15.68 12.42Q16.21 12.42 17.28 11.42L17.28 11.42L17.28 11.42Q18.34 10.42 18.34 10.01L18.34 10.01L18.34 10.01Q18.34 9.93 18.23 9.93ZM22.81 10.44L22.81 10.44L22.81 10.44Q21.73 11.90 21.73 12.43L21.73 12.43L21.73 12.43Q21.73 12.61 21.91 12.61L21.91 12.61L21.91 12.61Q22.40 12.61 23.77 11.83L23.77 11.83L23.77 11.83Q25.14 11.05 25.24 11.05L25.24 11.05L25.24 11.05Q25.44 11.05 25.44 11.21L25.44 11.21L25.44 11.24L25.44 11.24Q25.42 11.33 24.65 11.86L24.65 11.86L24.65 11.86Q23.88 12.39 22.74 12.94L22.74 12.94L22.74 12.94Q21.59 13.48 20.82 13.48L20.82 13.48L20.82 13.48Q19.60 13.48 19.60 12.07L19.60 12.07L19.60 12.07Q19.60 10.79 20.97 9.12L20.97 9.12L20.97 9.12Q22.33 7.45 24.16 6.27L24.16 6.27L24.16 6.27Q26.00 5.10 27.29 5.10L27.29 5.10L27.29 5.10Q27.85 5.10 28.10 5.42L28.10 5.42L28.10 5.42Q28.35 5.74 28.35 6.02L28.35 6.02L28.35 6.02Q28.35 6.58 27.66 7.32L27.66 7.32L27.66 7.32Q26.96 8.06 26.03 8.70L26.03 8.70L26.03 8.70Q25.09 9.34 24.19 9.82L24.19 9.82L24.19 9.82Q23.28 10.30 22.81 10.44ZM27.23 6.22L27.23 6.22L27.23 6.22Q27.01 6.22 26.16 6.94L26.16 6.94L26.16 6.94Q25.31 7.67 24.58 8.41L24.58 8.41L23.86 9.14L23.86 9.14Q23.74 9.25 23.74 9.32L23.74 9.32L23.74 9.32Q23.74 9.38 23.87 9.38L23.87 9.38L23.87 9.38Q24.43 9.38 25.86 8.05L25.86 8.05L25.86 8.05Q27.29 6.72 27.29 6.27L27.29 6.27L27.29 6.27Q27.29 6.22 27.23 6.22ZM28.53 10.11L28.53 10.11L28.53 10.11Q28.53 10.49 28.98 10.49L28.98 10.49L28.98 10.49Q29.40 10.49 29.90 10.28L29.90 10.28L29.90 10.28Q30.41 10.07 30.45 10.07L30.45 10.07L30.45 10.07Q30.49 10.07 30.54 10.14L30.54 10.14L30.54 10.14Q30.59 10.21 30.59 10.28L30.59 10.28L30.59 10.28Q30.59 10.43 29.94 10.68L29.94 10.68L29.94 10.68Q29.29 10.92 28.99 10.92L28.99 10.92L28.99 10.92Q28.70 10.92 28.58 10.91L28.58 10.91L28.58 10.91Q28.46 10.91 28.39 11.06L28.39 11.06L28.39 11.06Q27.36 13.01 26.33 13.51L26.33 13.51L26.33 13.51Q25.89 13.73 25.39 13.73L25.39 13.73L25.39 13.73Q24.89 13.73 24.58 13.40L24.58 13.40L24.58 13.40Q24.26 13.08 24.26 12.36L24.26 12.36L24.26 12.36Q24.26 11.37 24.91 10.51L24.91 10.51L24.91 10.51Q25.56 9.65 26.39 9.21L26.39 9.21L26.39 9.21Q27.22 8.78 27.89 8.78L27.89 8.78L27.89 8.78Q29.02 8.90 29.02 9.46L29.02 9.46L29.02 9.46Q29.02 9.62 28.95 9.74L28.95 9.74L28.95 9.74Q28.87 9.86 28.82 9.88L28.82 9.88L28.82 9.88Q28.77 9.90 28.70 9.91L28.70 9.91L28.70 9.91Q28.53 9.95 28.53 10.11ZM27.38 10.75L27.38 10.75L27.38 10.75Q26.94 11.09 26.51 11.61L26.51 11.61L26.51 11.61Q26.08 12.12 26.08 12.45L26.08 12.45L26.08 12.45Q26.08 12.78 26.26 12.78L26.26 12.78L26.26 12.78Q26.54 12.78 27.29 11.92L27.29 11.92L27.29 11.92Q28.04 11.06 28.04 10.50L28.04 10.50L28.04 10.50Q28.04 10.42 27.94 10.42L27.94 10.42L27.94 10.42Q27.83 10.42 27.38 10.75ZM31.86 8.20L31.86 8.20L31.86 8.20Q31.96 8.20 32.05 8.29L32.05 8.29L32.05 8.29Q32.13 8.39 32.13 8.50L32.13 8.50L32.13 8.50Q32.13 8.62 31.99 8.81L31.99 8.81L31.99 8.81Q31.44 9.48 31.27 9.65L31.27 9.65L31.27 9.65Q31.09 9.83 31.09 9.88L31.09 9.88L31.09 9.88Q31.09 9.94 31.19 9.94L31.19 9.94L31.19 9.94Q31.28 9.94 31.93 9.70L31.93 9.70L31.93 9.70Q32.59 9.45 32.80 9.45L32.80 9.45L32.80 9.45Q33.01 9.45 33.24 9.63L33.24 9.63L33.24 9.63Q33.46 9.80 33.46 10.07L33.46 10.07L33.46 10.07Q33.46 10.35 32.61 11.32L32.61 11.32L32.61 11.32Q31.75 12.29 31.75 12.59L31.75 12.59L31.75 12.59Q31.75 12.64 31.79 12.64L31.79 12.64L31.79 12.64Q31.86 12.64 32.05 12.55L32.05 12.55L32.05 12.55Q32.23 12.46 32.27 12.46L32.27 12.46L32.27 12.46Q32.42 12.46 32.42 12.57L32.42 12.57L32.42 12.57Q32.42 13.01 31.74 13.44L31.74 13.44L31.74 13.44Q31.05 13.87 30.58 13.87L30.58 13.87L30.58 13.87Q30.11 13.87 29.82 13.62L29.82 13.62L29.82 13.62Q29.53 13.36 29.53 12.92L29.53 12.92L29.53 12.92Q29.53 12.49 29.95 11.95L29.95 11.95L29.95 11.95Q30.38 11.41 30.84 11.19L30.84 11.19L30.84 11.19Q31.29 10.96 31.29 10.82L31.29 10.82L31.29 10.82Q31.29 10.78 31.28 10.77L31.28 10.77L31.28 10.77Q30.66 11.02 30.27 11.02L30.27 11.02L30.27 11.02Q29.50 11.02 29.50 10.57L29.50 10.57L29.50 10.57Q29.50 10.05 30.39 9.21L30.39 9.21L30.39 9.21Q31.29 8.37 31.86 8.20ZM37.07 12.87L37.07 12.87L37.07 12.87Q37.07 12.94 37.17 12.96L37.17 12.96L37.17 12.96Q37.27 12.96 37.85 12.56L37.85 12.56L37.85 12.56Q38.43 12.17 38.51 12.12L38.51 12.12L38.51 12.12Q38.58 12.08 38.65 12.08L38.65 12.08L38.65 12.08Q38.85 12.08 38.85 12.27L38.85 12.27L38.85 12.27Q38.85 12.46 37.86 13.10L37.86 13.10L37.86 13.10Q36.88 13.75 36.47 13.75L36.47 13.75L36.47 13.75Q36.30 13.75 36.11 13.61L36.11 13.61L36.11 13.61Q35.92 13.47 35.92 13.28L35.92 13.28L35.92 13.28Q35.92 13.09 36.02 12.87L36.02 12.87L36.02 12.87Q36.12 12.64 36.12 12.56L36.12 12.56L36.12 12.56Q36.12 12.49 36.08 12.49L36.08 12.49L36.08 12.49Q36.04 12.49 35.99 12.52L35.99 12.52L35.99 12.52Q34.64 13.54 33.99 13.54L33.99 13.54L33.99 13.54Q33.63 13.54 33.42 13.27L33.42 13.27L33.42 13.27Q33.21 13.01 33.17 12.74L33.17 12.74L33.14 12.47L33.14 12.47Q33.14 12.01 33.50 11.40L33.50 11.40L33.50 11.40Q33.85 10.79 34.43 10.24L34.43 10.24L34.43 10.24Q35.01 9.69 35.86 9.31L35.86 9.31L35.86 9.31Q36.71 8.93 37.59 8.93L37.59 8.93L37.59 8.93Q38.07 8.93 38.48 9.18L38.48 9.18L38.48 9.18Q38.89 9.44 38.89 9.77L38.89 9.77L38.89 9.77Q38.89 10.11 38.23 10.18L38.23 10.18L38.23 10.18Q37.74 10.29 36.62 10.98L36.62 10.98L36.62 10.98Q35.49 11.68 35.49 12.04L35.49 12.04L35.49 12.04Q35.49 12.19 35.64 12.19L35.64 12.19L35.64 12.19Q35.92 12.19 36.97 11.40L36.97 11.40L36.97 11.40Q38.01 10.60 38.22 10.60L38.22 10.60L38.22 10.60Q38.43 10.60 38.43 10.85L38.43 10.85L38.43 10.85Q38.43 11.03 38.30 11.19L38.30 11.19L38.30 11.19Q38.16 11.35 38.11 11.42L38.11 11.42L38.11 11.42Q38.00 11.56 37.53 12.05L37.53 12.05L37.53 12.05Q37.07 12.53 37.07 12.87ZM42.94 13.59L42.94 13.59L42.94 13.59Q42.59 13.51 41.50 11.79L41.50 11.79L41.50 11.79Q41.27 11.98 40.87 12.36L40.87 12.36L40.87 12.36Q40.46 12.74 40.24 12.94L40.24 12.94L40.24 12.94Q40.01 13.13 39.72 13.37L39.72 13.37L39.72 13.37Q39.17 13.79 38.86 13.79L38.86 13.79L38.86 13.79Q38.56 13.79 38.32 13.51L38.32 13.51L38.32 13.51Q38.08 13.23 38.08 13.01L38.08 13.01L38.08 13.01Q38.08 11.83 40.54 10.18L40.54 10.18L40.54 10.18Q39.96 9.10 39.96 8.74L39.96 8.74L39.96 8.74Q39.96 8.67 40.03 8.53L40.03 8.53L40.03 8.53Q40.11 8.40 40.16 8.40L40.16 8.40L40.16 8.40Q40.21 8.40 40.22 8.46L40.22 8.46L40.22 8.46Q40.38 8.86 41.02 9.88L41.02 9.88L41.02 9.88Q41.85 9.37 42.60 9.00L42.60 9.00L42.60 9.00Q43.34 8.62 43.44 8.62L43.44 8.62L43.44 8.62Q43.54 8.62 43.59 8.63L43.59 8.63L43.59 8.63Q43.64 8.64 43.77 8.67L43.77 8.67L43.77 8.67Q43.90 8.69 44.00 8.75L44.00 8.75L44.00 8.75Q44.10 8.81 44.18 8.91L44.18 8.91L44.18 8.91Q44.27 9.02 44.27 9.16L44.27 9.16L44.27 9.16Q44.27 9.30 44.16 9.46L44.16 9.46L44.16 9.46Q44.04 9.63 43.79 9.86L43.79 9.86L43.79 9.86Q43.54 10.09 43.30 10.29L43.30 10.29L43.30 10.29Q42.46 10.98 41.97 11.37L41.97 11.37L41.97 11.37Q43.13 13.19 43.13 13.41L43.13 13.41L43.13 13.41Q43.13 13.57 42.94 13.59Z"></path></g><!----><!----></svg>