<svg data-v-fde0c5aa="" xmlns="http://www.w3.org/2000/svg" viewBox="0 0 300 300" class="font"><!----><defs data-v-fde0c5aa=""><linearGradient data-v-fde0c5aa="" gradientTransform="rotate(25)" id="4de9044b-d092-435f-ac56-31f6f5a048f6" x1="0%" y1="0%" x2="100%" y2="0%"><stop data-v-fde0c5aa="" offset="0%" stop-color="#30092A" stop-opacity="1"></stop><stop data-v-fde0c5aa="" offset="100%" stop-color="#CB3C61" stop-opacity="1"></stop></linearGradient></defs><rect data-v-fde0c5aa="" fill="url(#4de9044b-d092-435f-ac56-31f6f5a048f6)" x="0" y="0" width="300px" height="300px" class="logo-background-square"></rect><defs data-v-fde0c5aa=""><!----></defs><g data-v-fde0c5aa="" id="b789ff46-aa81-44e0-8a7d-9b4cc2d62e3e" fill="#ffffff" transform="matrix(3.8022815793955176,0,0,3.8022815793955176,38.13688198983481,123.5931536225826)"><path d="M6.30 1.69L6.85 3.35L7.85 3.19L7.85 0.70L0.64 0.70L0.49 1.69L1.67 2.16L1.67 9.07L0.52 9.51L0.66 10.50L8.09 10.50L8.09 7.55L7.10 7.41L6.36 9.51L3.60 9.51L3.60 6.01L5.04 6.01L5.47 7.14L6.47 7L6.47 3.91L5.46 3.77L5.04 4.90L3.60 4.90L3.60 1.69ZM16.18 4.82L16.02 3.96L13.26 3.96L13.09 4.82L13.86 5.12L12.57 6.72L12.57 6.12L11.89 5.12L12.60 4.82L12.43 3.96L8.95 3.96L8.78 4.82L9.77 5.12L11.34 7.42L9.79 9.34L8.72 9.65L8.89 10.50L11.55 10.50L11.72 9.65L11.05 9.34L12.28 7.85L12.28 8.37L12.96 9.34L12.25 9.65L12.42 10.50L15.93 10.50L16.10 9.65L15.05 9.34L13.50 7.15L15.13 5.12ZM19.63 10.50L19.92 10.50C22.09 10.50 23.80 9.11 23.80 7.04C23.80 4.89 22.60 3.81 20.61 3.81C19.99 3.81 19.26 4.05 18.83 4.24L18.23 3.81L16.35 3.96L16.52 4.82L17.29 4.82L17.29 12.68L16.41 12.99L16.58 13.85L19.77 13.85L19.94 12.99L19.04 12.68L19.04 5.10C19.52 4.91 20.03 4.82 20.50 4.82C21.28 4.82 21.88 5.32 21.88 6.94C21.88 8.62 20.80 9.65 19.89 9.65L19.63 9.65ZM27.65 9.34L27.65 0.25L26.82 0.04L25.00 0.25L25.16 1.05L25.89 1.05L25.89 9.34L24.92 9.65L25.09 10.50L28.45 10.50L28.62 9.65ZM33.24 3.81C31.11 3.81 29.74 5.14 29.74 7.22C29.74 9.31 30.98 10.64 33.24 10.64C35.50 10.64 36.72 9.37 36.72 7.22C36.72 5.08 35.35 3.81 33.24 3.81ZM33.24 4.69C34.27 4.69 34.94 5.61 34.94 7.18C34.94 8.74 34.30 9.76 33.24 9.76C32.14 9.76 31.54 8.72 31.54 7.18C31.54 5.64 32.20 4.69 33.24 4.69ZM43.50 5.74L43.50 4.12C42.97 3.91 42.49 3.81 42.06 3.81C41.41 3.81 40.68 4.02 40.25 4.17L39.68 3.81L37.86 3.96L38.02 4.82L38.65 4.82L38.65 9.34L37.77 9.65L37.94 10.50L41.41 10.50L41.58 9.65L40.42 9.34L40.42 5.10C40.82 4.94 41.40 4.82 41.68 4.82C41.87 4.82 42.14 4.84 42.24 4.87L42.56 5.91ZM44.59 5.74L45.53 5.91L45.84 4.84C46.10 4.77 46.54 4.69 46.87 4.69C47.49 4.69 48.06 5.08 48.06 5.88L48.06 6.37C46.30 6.37 44.07 6.80 44.07 8.71C44.07 9.98 45.18 10.65 46.44 10.65C47.25 10.65 47.82 10.47 48.24 10.18L48.66 10.50L50.44 10.50L50.61 9.65L49.83 9.34L49.83 6.44C49.83 4.75 48.75 3.81 46.94 3.81C46.24 3.81 45.40 3.99 44.59 4.40ZM48.06 9.07C47.82 9.42 47.33 9.63 46.96 9.63C46.56 9.63 45.99 9.38 45.99 8.58C45.99 7.78 46.76 7.24 48.06 7.24ZM58.35 4.82L58.18 3.96L55.43 3.96L55.26 4.82L56.03 5.12L54.74 6.72L54.74 6.12L54.05 5.12L54.77 4.82L54.60 3.96L51.11 3.96L50.95 4.82L51.94 5.12L53.51 7.42L51.95 9.34L50.89 9.65L51.06 10.50L53.72 10.50L53.89 9.65L53.21 9.34L54.45 7.85L54.45 8.37L55.13 9.34L54.42 9.65L54.59 10.50L58.10 10.50L58.27 9.65L57.22 9.34L55.66 7.15L57.30 5.12Z"></path></g><!----><!----></svg>