<svg data-v-423bf9ae="" xmlns="http://www.w3.org/2000/svg" viewBox="0 0 175.7034787457265 60" class="font"><!----><!----><!----><g data-v-423bf9ae="" id="6d68d2a4-d2c6-4e4f-81a8-72abf31941db" fill="black" transform="matrix(4.318099893726574,0,0,4.318099893726574,-0.47498727142686903,-16.106512209124183)"><path d="M7.90 12.23L7.90 12.23L7.90 12.23Q7.90 12.26 7.86 12.33L7.86 12.33L7.86 12.33Q7.83 12.41 7.78 12.49L7.78 12.49L7.78 12.49Q7.74 12.57 7.69 12.64L7.69 12.64L7.69 12.64Q7.64 12.71 7.60 12.73L7.60 12.73L7.60 12.73Q7.58 12.74 7.42 12.80L7.42 12.80L7.42 12.80Q7.26 12.86 6.99 12.94L6.99 12.94L6.99 12.94Q6.73 13.02 6.37 13.10L6.37 13.10L6.37 13.10Q6.01 13.19 5.59 13.27L5.59 13.27L5.59 13.27Q5.17 13.35 4.69 13.40L4.69 13.40L4.69 13.40Q4.22 13.45 3.73 13.46L3.73 13.46L3.73 13.46Q3.32 13.47 2.96 13.49L2.96 13.49L2.96 13.49Q2.60 13.50 2.30 13.50L2.30 13.50L2.30 13.50Q2.13 13.50 1.97 13.49L1.97 13.49L1.97 13.49Q1.82 13.49 1.68 13.47L1.68 13.47L1.68 13.47Q1.49 13.45 1.31 13.43L1.31 13.43L1.31 13.43Q1.16 13.40 0.99 13.36L0.99 13.36L0.99 13.36Q0.82 13.32 0.70 13.25L0.70 13.25L0.70 13.25Q0.66 13.24 0.64 13.21L0.64 13.21L0.64 13.21Q0.58 13.17 0.59 13.10L0.59 13.10L0.59 13.10Q0.53 13.06 0.50 13.02L0.50 13.02L0.50 13.02Q0.49 13.00 0.48 13.00L0.48 13.00L0.48 13.00Q0.48 12.98 0.49 12.96L0.49 12.96L0.49 12.96Q0.49 12.93 0.55 12.86L0.55 12.86L0.55 12.86Q0.50 12.85 0.48 12.83L0.48 12.83L0.48 12.83Q0.45 12.81 0.44 12.78L0.44 12.78L0.44 12.78Q0.42 12.76 0.42 12.71L0.42 12.71L0.42 12.71Q0.42 12.67 0.43 12.63L0.43 12.63L0.43 12.63Q0.44 12.60 0.47 12.55L0.47 12.55L0.47 12.55Q0.49 12.51 0.55 12.46L0.55 12.46L0.55 12.46Q0.55 12.37 0.57 12.33L0.57 12.33L0.57 12.33Q0.57 12.30 0.59 12.30L0.59 12.30L0.59 12.30Q0.59 12.28 0.64 12.26L0.64 12.26L0.64 12.26Q0.69 12.24 0.75 12.22L0.75 12.22L0.75 12.22Q0.81 12.21 0.88 12.20L0.88 12.20L0.88 12.20Q0.94 12.20 0.99 12.20L0.99 12.20L1.00 12.22L1.00 12.22Q1.02 11.76 1.04 11.24L1.04 11.24L1.04 11.24Q1.06 10.71 1.08 10.26L1.08 10.26L1.08 10.26Q1.11 9.73 1.13 9.21L1.13 9.21L1.13 9.21Q1.16 8.57 1.22 7.86L1.22 7.86L1.22 7.86Q1.26 7.25 1.33 6.49L1.33 6.49L1.33 6.49Q1.40 5.74 1.51 4.95L1.51 4.95L0.72 4.96L0.72 4.96Q0.65 4.96 0.58 4.94L0.58 4.94L0.58 4.94Q0.53 4.93 0.46 4.89L0.46 4.89L0.46 4.89Q0.40 4.86 0.38 4.79L0.38 4.79L0.38 4.79Q0.27 4.78 0.22 4.75L0.22 4.75L0.22 4.75Q0.16 4.72 0.14 4.70L0.14 4.70L0.14 4.70Q0.11 4.67 0.11 4.63L0.11 4.63L0.11 4.63Q0.12 4.55 0.16 4.51L0.16 4.51L0.16 4.51Q0.19 4.47 0.29 4.42L0.29 4.42L0.29 4.42Q0.41 4.38 0.46 4.31L0.46 4.31L0.46 4.31Q0.51 4.25 0.57 4.23L0.57 4.23L0.57 4.23Q0.60 4.22 0.90 4.17L0.90 4.17L0.90 4.17Q1.19 4.11 1.64 4.03L1.64 4.03L1.64 4.03Q2.09 3.95 2.65 3.88L2.65 3.88L2.65 3.88Q3.21 3.81 3.77 3.77L3.77 3.77L3.77 3.77Q4.24 3.74 4.71 3.73L4.71 3.73L4.71 3.73Q5.17 3.73 5.58 3.73L5.58 3.73L5.58 3.73Q6.15 3.73 6.53 3.74L6.53 3.74L6.53 3.74Q6.91 3.75 6.99 3.77L6.99 3.77L6.99 3.77Q7.03 3.79 7.08 3.82L7.08 3.82L7.08 3.82Q7.12 3.86 7.16 3.91L7.16 3.91L7.16 3.91Q7.20 3.97 7.23 4.07L7.23 4.07L7.23 4.07Q7.28 4.09 7.30 4.12L7.30 4.12L7.30 4.12Q7.33 4.14 7.34 4.16L7.34 4.16L7.36 4.20L7.36 4.20Q7.36 4.25 7.36 4.30L7.36 4.30L7.36 4.30Q7.36 4.36 7.35 4.40L7.35 4.40L7.35 4.40Q7.34 4.42 7.32 4.43L7.32 4.43L7.32 4.43Q7.31 4.44 7.28 4.46L7.28 4.46L7.28 4.46Q7.26 4.47 7.23 4.48L7.23 4.48L7.23 4.48Q7.23 4.58 7.23 4.63L7.23 4.63L7.23 4.63Q7.22 4.69 7.21 4.72L7.21 4.72L7.21 4.72Q7.19 4.76 7.17 4.78L7.17 4.78L7.17 4.78Q7.12 4.81 7.01 4.83L7.01 4.83L7.01 4.83Q6.90 4.85 6.60 4.85L6.60 4.85L2.37 4.94L2.37 4.94Q2.34 5.13 2.33 5.40L2.33 5.40L2.33 5.40Q2.31 5.67 2.29 5.98L2.29 5.98L2.29 5.98Q2.28 6.29 2.26 6.61L2.26 6.61L2.26 6.61Q2.24 6.93 2.23 7.23L2.23 7.23L2.23 7.23Q2.21 7.53 2.20 7.78L2.20 7.78L2.20 7.78Q2.19 8.03 2.18 8.20L2.18 8.20L2.18 8.20Q2.44 8.12 2.75 8.08L2.75 8.08L2.75 8.08Q3.07 8.03 3.34 8.00L3.34 8.00L3.34 8.00Q3.66 7.98 3.98 7.96L3.98 7.96L3.98 7.96Q4.18 7.94 4.36 7.94L4.36 7.94L4.36 7.94Q4.55 7.94 4.72 7.94L4.72 7.94L4.72 7.94Q5.40 7.94 5.77 7.97L5.77 7.97L5.77 7.97Q6.15 8.00 6.20 8.01L6.20 8.01L6.20 8.01Q6.24 8.02 6.29 8.07L6.29 8.07L6.29 8.07Q6.34 8.11 6.38 8.18L6.38 8.18L6.38 8.18Q6.42 8.24 6.45 8.32L6.45 8.32L6.45 8.32Q6.48 8.40 6.48 8.46L6.48 8.46L6.48 8.46Q6.48 8.58 6.42 8.71L6.42 8.71L6.42 8.71Q6.36 8.84 6.32 8.92L6.32 8.92L6.32 8.92Q6.26 9.01 6.17 9.09L6.17 9.09L6.17 9.09Q6.08 9.17 6.02 9.16L6.02 9.16L6.02 9.16Q6.00 9.16 5.85 9.15L5.85 9.15L5.85 9.15Q5.70 9.15 5.48 9.14L5.48 9.14L5.48 9.14Q5.26 9.13 5.00 9.12L5.00 9.12L5.00 9.12Q4.74 9.11 4.49 9.11L4.49 9.11L4.49 9.11Q4.25 9.10 4.05 9.10L4.05 9.10L4.05 9.10Q3.86 9.09 3.77 9.09L3.77 9.09L3.77 9.09Q3.66 9.09 3.45 9.11L3.45 9.11L3.45 9.11Q3.27 9.13 2.95 9.16L2.95 9.16L2.95 9.16Q2.64 9.19 2.15 9.26L2.15 9.26L2.15 9.26Q2.14 9.54 2.14 9.84L2.14 9.84L2.14 9.84Q2.14 10.15 2.14 10.49L2.14 10.49L2.14 10.49Q2.14 10.96 2.15 11.43L2.15 11.43L2.15 11.43Q2.17 11.89 2.20 12.26L2.20 12.26L2.94 12.26L2.94 12.26Q3.33 12.26 3.71 12.25L3.71 12.25L3.71 12.25Q4.09 12.24 4.41 12.22L4.41 12.22L4.41 12.22Q4.87 12.18 5.28 12.14L5.28 12.14L5.28 12.14Q5.69 12.10 6.02 12.07L6.02 12.07L6.02 12.07Q6.35 12.03 6.57 12.01L6.57 12.01L6.57 12.01Q6.79 12.00 6.84 12.00L6.84 12.00L6.84 12.00Q6.90 12.02 6.99 12.01L6.99 12.01L6.99 12.01Q7.08 12.00 7.18 11.99L7.18 11.99L7.18 11.99Q7.29 11.98 7.38 11.96L7.38 11.96L7.38 11.96Q7.48 11.95 7.53 11.94L7.53 11.94L7.53 11.94Q7.58 11.93 7.64 11.96L7.64 11.96L7.64 11.96Q7.70 11.99 7.76 12.04L7.76 12.04L7.76 12.04Q7.81 12.09 7.85 12.15L7.85 12.15L7.85 12.15Q7.89 12.20 7.90 12.23ZM12.63 13.04L12.63 13.04L12.63 13.04Q12.67 13.10 12.66 13.16L12.66 13.16L12.66 13.16Q12.65 13.22 12.61 13.27L12.61 13.27L12.61 13.27Q12.56 13.32 12.51 13.34L12.51 13.34L12.51 13.34Q12.45 13.36 12.40 13.34L12.40 13.34L12.40 13.34Q12.30 13.32 12.20 13.36L12.20 13.36L12.20 13.36Q12.09 13.40 12.05 13.43L12.05 13.43L12.05 13.43Q12.01 13.47 12.03 13.52L12.03 13.52L12.03 13.52Q12.06 13.57 12.09 13.62L12.09 13.62L12.09 13.62Q12.15 13.69 12.10 13.77L12.10 13.77L12.10 13.77Q12.05 13.85 11.96 13.84L11.96 13.84L11.96 13.84Q11.92 13.84 11.80 13.71L11.80 13.71L11.80 13.71Q11.69 13.58 11.54 13.38L11.54 13.38L11.54 13.38Q11.38 13.19 11.20 12.93L11.20 12.93L11.20 12.93Q11.03 12.67 10.85 12.41L10.85 12.41L10.85 12.41Q10.66 12.15 10.50 11.89L10.50 11.89L10.50 11.89Q10.33 11.64 10.21 11.44L10.21 11.44L10.21 11.44Q10.06 11.63 9.87 11.85L9.87 11.85L9.87 11.85Q9.68 12.07 9.49 12.30L9.49 12.30L9.49 12.30Q9.30 12.53 9.12 12.75L9.12 12.75L9.12 12.75Q8.94 12.96 8.80 13.13L8.80 13.13L8.80 13.13Q8.65 13.30 8.56 13.40L8.56 13.40L8.56 13.40Q8.46 13.51 8.44 13.51L8.44 13.51L8.44 13.51Q8.37 13.56 8.32 13.62L8.32 13.62L8.32 13.62Q8.26 13.69 8.16 13.71L8.16 13.71L8.16 13.71Q8.11 13.72 8.08 13.70L8.08 13.70L8.08 13.70Q8.04 13.69 8.00 13.66L8.00 13.66L8.00 13.66Q7.97 13.64 7.94 13.62L7.94 13.62L7.94 13.62Q7.90 13.60 7.87 13.61L7.87 13.61L7.87 13.61Q7.80 13.61 7.77 13.50L7.77 13.50L7.77 13.50Q7.73 13.40 7.83 13.26L7.83 13.26L7.83 13.26Q7.83 13.25 7.94 13.12L7.94 13.12L7.94 13.12Q8.04 13.00 8.20 12.79L8.20 12.79L8.20 12.79Q8.36 12.59 8.57 12.34L8.57 12.34L8.57 12.34Q8.77 12.09 8.99 11.82L8.99 11.82L8.99 11.82Q9.21 11.56 9.42 11.31L9.42 11.31L9.42 11.31Q9.63 11.05 9.81 10.86L9.81 10.86L9.81 10.86Q9.60 10.55 9.34 10.17L9.34 10.17L9.34 10.17Q9.09 9.78 8.85 9.43L8.85 9.43L8.85 9.43Q8.61 9.08 8.43 8.81L8.43 8.81L8.43 8.81Q8.24 8.54 8.16 8.46L8.16 8.46L8.16 8.46Q8.09 8.39 8.05 8.33L8.05 8.33L8.05 8.33Q8.01 8.27 8.00 8.23L8.00 8.23L8.00 8.23Q8.00 8.19 8.06 8.18L8.06 8.18L8.06 8.18Q8.09 8.18 8.10 8.15L8.10 8.15L8.10 8.15Q8.11 8.11 8.12 8.08L8.12 8.08L8.12 8.08Q8.13 8.05 8.15 8.03L8.15 8.03L8.15 8.03Q8.16 8.00 8.20 7.98L8.20 7.98L8.20 7.98Q8.28 7.96 8.40 7.96L8.40 7.96L8.40 7.96Q8.53 7.96 8.61 7.93L8.61 7.93L8.61 7.93Q8.70 7.91 8.73 7.93L8.73 7.93L8.73 7.93Q8.76 7.95 8.82 8.01L8.82 8.01L8.82 8.01Q8.84 8.04 8.84 8.03L8.84 8.03L8.84 8.03Q8.85 8.03 8.85 8.00L8.85 8.00L8.85 8.00Q8.85 7.98 8.85 7.96L8.85 7.96L8.85 7.96Q8.86 7.94 8.89 7.93L8.89 7.93L8.89 7.93Q8.95 7.91 8.98 7.90L8.98 7.90L8.98 7.90Q9.01 7.90 9.03 7.83L9.03 7.83L9.03 7.83Q9.04 7.76 9.05 7.76L9.05 7.76L9.05 7.76Q9.06 7.77 9.14 7.83L9.14 7.83L9.14 7.83Q9.17 7.87 9.32 8.07L9.32 8.07L9.32 8.07Q9.47 8.27 9.68 8.58L9.68 8.58L9.68 8.58Q9.89 8.88 10.13 9.24L10.13 9.24L10.13 9.24Q10.36 9.60 10.57 9.95L10.57 9.95L10.57 9.95Q10.77 9.67 11.03 9.32L11.03 9.32L11.03 9.32Q11.28 8.98 11.52 8.66L11.52 8.66L11.52 8.66Q11.76 8.35 11.97 8.12L11.97 8.12L11.97 8.12Q12.17 7.89 12.28 7.83L12.28 7.83L12.28 7.83Q12.35 7.79 12.39 7.77L12.39 7.77L12.39 7.77Q12.42 7.76 12.44 7.76L12.44 7.76L12.44 7.76Q12.48 7.76 12.52 7.80L12.52 7.80L12.52 7.80Q12.58 7.83 12.64 7.85L12.64 7.85L12.64 7.85Q12.69 7.87 12.74 7.93L12.74 7.93L12.74 7.93Q12.79 7.99 12.80 8.06L12.80 8.06L12.80 8.06Q12.80 8.12 12.78 8.20L12.78 8.20L12.78 8.20Q12.77 8.23 12.66 8.39L12.66 8.39L12.66 8.39Q12.56 8.56 12.34 8.85L12.34 8.85L12.34 8.85Q12.11 9.15 11.77 9.57L11.77 9.57L11.77 9.57Q11.42 10.00 10.93 10.58L10.93 10.58L10.93 10.58Q11.07 10.81 11.24 11.08L11.24 11.08L11.24 11.08Q11.41 11.35 11.59 11.61L11.59 11.61L11.59 11.61Q11.77 11.87 11.94 12.12L11.94 12.12L11.94 12.12Q12.11 12.36 12.26 12.55L12.26 12.55L12.26 12.55Q12.40 12.75 12.50 12.88L12.50 12.88L12.50 12.88Q12.60 13.01 12.63 13.04ZM14.96 7.76L14.96 7.76L14.96 7.76Q14.95 7.81 14.94 7.95L14.94 7.95L14.94 7.95Q14.94 8.09 14.92 8.31L14.92 8.31L14.92 8.31Q15.22 8.22 15.52 8.18L15.52 8.18L15.52 8.18Q15.83 8.13 16.15 8.13L16.15 8.13L16.15 8.13Q16.51 8.13 16.86 8.21L16.86 8.21L16.86 8.21Q17.22 8.29 17.53 8.48L17.53 8.48L17.53 8.48Q17.77 8.62 17.93 8.93L17.93 8.93L17.93 8.93Q18.10 9.25 18.21 9.61L18.21 9.61L18.21 9.61Q18.27 9.82 18.33 10.08L18.33 10.08L18.33 10.08Q18.40 10.34 18.40 10.64L18.40 10.64L18.40 10.64Q18.40 10.90 18.33 11.18L18.33 11.18L18.33 11.18Q18.27 11.46 18.10 11.76L18.10 11.76L18.10 11.76Q17.94 12.06 17.66 12.37L17.66 12.37L17.66 12.37Q17.38 12.68 16.94 13.00L16.94 13.00L16.94 13.00Q16.52 13.30 16.18 13.46L16.18 13.46L16.18 13.46Q15.85 13.62 15.62 13.69L15.62 13.69L15.62 13.69Q15.39 13.75 15.26 13.74L15.26 13.74L15.26 13.74Q15.13 13.74 15.11 13.73L15.11 13.73L15.11 13.73Q15.05 13.69 14.99 13.57L14.99 13.57L14.99 13.57Q14.93 13.46 14.82 13.33L14.82 13.33L14.82 13.33Q14.79 13.29 14.76 13.24L14.76 13.24L14.76 13.24Q14.73 13.20 14.70 13.14L14.70 13.14L14.70 13.14Q14.68 13.79 14.67 14.42L14.67 14.42L14.67 14.42Q14.66 15.05 14.66 15.60L14.66 15.60L14.66 15.60Q14.66 15.94 14.66 16.24L14.66 16.24L14.66 16.24Q14.67 16.54 14.68 16.78L14.68 16.78L14.68 16.78Q14.68 16.86 14.69 16.95L14.69 16.95L14.69 16.95Q14.70 17.04 14.70 17.10L14.70 17.10L14.70 17.10Q14.70 17.17 14.67 17.21L14.67 17.21L14.67 17.21Q14.64 17.25 14.57 17.25L14.57 17.25L14.57 17.25Q14.43 17.25 14.36 17.32L14.36 17.32L14.36 17.32Q14.29 17.38 14.19 17.52L14.19 17.52L14.19 17.52Q14.14 17.58 14.08 17.61L14.08 17.61L14.08 17.61Q14.01 17.64 13.95 17.61L13.95 17.61L13.95 17.61Q13.88 17.58 13.82 17.48L13.82 17.48L13.82 17.48Q13.75 17.38 13.70 17.19L13.70 17.19L13.70 17.19Q13.68 17.10 13.66 16.97L13.66 16.97L13.66 16.97Q13.64 16.84 13.63 16.64L13.63 16.64L13.63 16.64Q13.62 16.43 13.62 16.15L13.62 16.15L13.62 16.15Q13.62 15.87 13.62 15.48L13.62 15.48L13.64 13.11L13.64 13.11Q13.66 12.22 13.71 11.37L13.71 11.37L13.71 11.37Q13.77 10.52 13.84 9.78L13.84 9.78L13.84 9.78Q13.67 9.84 13.53 9.88L13.53 9.88L13.53 9.88Q13.38 9.91 13.35 9.89L13.35 9.89L13.35 9.89Q13.28 9.86 13.26 9.83L13.26 9.83L13.26 9.83Q13.24 9.80 13.23 9.77L13.23 9.77L13.23 9.77Q13.23 9.73 13.22 9.71L13.22 9.71L13.22 9.71Q13.21 9.69 13.16 9.68L13.16 9.68L13.16 9.68Q13.11 9.67 13.08 9.64L13.08 9.64L13.08 9.64Q13.04 9.60 13.03 9.57L13.03 9.57L13.03 9.57Q13.02 9.54 13.04 9.51L13.04 9.51L13.04 9.51Q13.06 9.47 13.11 9.47L13.11 9.47L13.11 9.47Q13.16 9.46 13.13 9.43L13.13 9.43L13.13 9.43Q13.09 9.40 13.06 9.35L13.06 9.35L13.06 9.35Q13.03 9.30 13.04 9.22L13.04 9.22L13.04 9.22Q13.06 9.14 13.21 9.04L13.21 9.04L13.21 9.04Q13.30 8.97 13.50 8.86L13.50 8.86L13.50 8.86Q13.71 8.76 13.99 8.63L13.99 8.63L13.99 8.63Q14.07 8.09 14.15 7.76L14.15 7.76L14.15 7.76Q14.23 7.42 14.29 7.34L14.29 7.34L14.29 7.34Q14.32 7.31 14.33 7.28L14.33 7.28L14.33 7.28Q14.35 7.25 14.36 7.23L14.36 7.23L14.36 7.23Q14.38 7.21 14.40 7.20L14.40 7.20L14.40 7.20Q14.42 7.18 14.47 7.17L14.47 7.17L14.47 7.17Q14.52 7.16 14.55 7.19L14.55 7.19L14.55 7.19Q14.59 7.22 14.62 7.26L14.62 7.26L14.62 7.26Q14.65 7.31 14.68 7.35L14.68 7.35L14.68 7.35Q14.72 7.39 14.77 7.40L14.77 7.40L14.77 7.40Q14.86 7.41 14.92 7.50L14.92 7.50L14.92 7.50Q14.98 7.58 14.96 7.76ZM16.28 9.09L16.28 9.09L16.28 9.09Q15.97 9.09 15.62 9.16L15.62 9.16L15.62 9.16Q15.27 9.23 14.85 9.39L14.85 9.39L14.72 12.35L14.72 12.35Q14.79 12.37 14.86 12.38L14.86 12.38L14.86 12.38Q14.94 12.38 15.03 12.38L15.03 12.38L15.03 12.38Q15.26 12.38 15.56 12.32L15.56 12.32L15.56 12.32Q15.85 12.26 16.16 12.13L16.16 12.13L16.16 12.13Q16.47 12.00 16.77 11.82L16.77 11.82L16.77 11.82Q17.07 11.64 17.31 11.40L17.31 11.40L17.31 11.40Q17.54 11.16 17.68 10.87L17.68 10.87L17.68 10.87Q17.83 10.58 17.83 10.23L17.83 10.23L17.83 10.23Q17.84 10.02 17.74 9.82L17.74 9.82L17.74 9.82Q17.64 9.62 17.45 9.45L17.45 9.45L17.45 9.45Q17.25 9.29 16.96 9.19L16.96 9.19L16.96 9.19Q16.67 9.09 16.28 9.09ZM20.69 4.38L20.69 4.38L20.69 4.38Q20.69 4.47 20.67 4.75L20.67 4.75L20.67 4.75Q20.66 5.03 20.64 5.42L20.64 5.42L20.64 5.42Q20.62 5.82 20.59 6.29L20.59 6.29L20.59 6.29Q20.57 6.75 20.54 7.22L20.54 7.22L20.54 7.22Q20.51 7.69 20.49 8.13L20.49 8.13L20.49 8.13Q20.47 8.57 20.47 8.89L20.47 8.89L20.47 8.89Q20.45 9.09 20.45 9.33L20.45 9.33L20.45 9.33Q20.45 9.57 20.45 9.84L20.45 9.84L20.45 9.84Q20.45 10.21 20.45 10.60L20.45 10.60L20.45 10.60Q20.45 10.99 20.46 11.38L20.46 11.38L20.46 11.38Q20.47 11.76 20.48 12.11L20.48 12.11L20.48 12.11Q20.49 12.46 20.49 12.74L20.49 12.74L20.49 12.74Q20.50 13.02 20.50 13.21L20.50 13.21L20.50 13.21Q20.51 13.40 20.51 13.45L20.51 13.45L20.51 13.45Q20.51 13.54 20.48 13.59L20.48 13.59L20.48 13.59Q20.45 13.64 20.40 13.66L20.40 13.66L20.40 13.66Q20.36 13.68 20.31 13.67L20.31 13.67L20.31 13.67Q20.26 13.66 20.23 13.64L20.23 13.64L20.23 13.64Q20.19 13.62 20.16 13.59L20.16 13.59L20.16 13.59Q20.14 13.56 20.13 13.55L20.13 13.55L20.13 13.55Q20.11 13.54 20.10 13.54L20.10 13.54L20.10 13.54Q20.09 13.55 20.08 13.60L20.08 13.60L20.08 13.60Q20.06 13.77 20.01 13.86L20.01 13.86L20.01 13.86Q19.95 13.95 19.88 13.98L19.88 13.98L19.88 13.98Q19.82 14.01 19.76 14L19.76 14L19.76 14Q19.71 13.99 19.69 13.95L19.69 13.95L19.69 13.95Q19.68 13.92 19.65 13.91L19.65 13.91L19.65 13.91Q19.62 13.90 19.58 13.90L19.58 13.90L19.58 13.90Q19.55 13.90 19.52 13.88L19.52 13.88L19.52 13.88Q19.49 13.86 19.48 13.81L19.48 13.81L19.48 13.81Q19.43 13.58 19.41 13.22L19.41 13.22L19.41 13.22Q19.40 12.86 19.40 12.41L19.40 12.41L19.40 12.41Q19.40 12.02 19.41 11.57L19.41 11.57L19.41 11.57Q19.41 11.12 19.41 10.64L19.41 10.64L19.41 10.64Q19.41 10.37 19.41 10.10L19.41 10.10L19.41 10.10Q19.41 9.83 19.40 9.55L19.40 9.55L19.40 9.12L19.40 9.12Q19.40 8.57 19.43 8.01L19.43 8.01L19.43 8.01Q19.46 7.45 19.50 6.94L19.50 6.94L19.50 6.94Q19.54 6.43 19.58 5.97L19.58 5.97L19.58 5.97Q19.63 5.52 19.67 5.17L19.67 5.17L19.67 5.17Q19.70 4.83 19.72 4.61L19.72 4.61L19.72 4.61Q19.74 4.39 19.74 4.33L19.74 4.33L19.74 4.33Q19.73 4.29 19.75 4.27L19.75 4.27L19.75 4.27Q19.76 4.25 19.79 4.24L19.79 4.24L19.79 4.24Q19.82 4.24 19.86 4.23L19.86 4.23L19.86 4.23Q19.89 4.23 19.92 4.22L19.92 4.22L19.92 4.22Q19.97 4.19 20.00 4.20L20.00 4.20L20.00 4.20Q20.03 4.21 20.05 4.23L20.05 4.23L20.05 4.23Q20.07 4.25 20.09 4.28L20.09 4.28L20.09 4.28Q20.10 4.30 20.14 4.30L20.14 4.30L20.14 4.30Q20.18 4.29 20.20 4.28L20.20 4.28L20.20 4.28Q20.23 4.26 20.24 4.24L20.24 4.24L20.24 4.24Q20.26 4.22 20.28 4.21L20.28 4.21L20.28 4.21Q20.30 4.20 20.32 4.20L20.32 4.20L20.32 4.20Q20.38 4.22 20.43 4.22L20.43 4.22L20.43 4.22Q20.48 4.22 20.48 4.20L20.48 4.20L20.48 4.20Q20.49 4.15 20.52 4.15L20.52 4.15L20.52 4.15Q20.55 4.16 20.59 4.19L20.59 4.19L20.59 4.19Q20.63 4.22 20.66 4.26L20.66 4.26L20.66 4.26Q20.69 4.30 20.69 4.38ZM26.44 10.62L26.44 10.62L26.44 10.62Q26.44 11.33 26.23 11.91L26.23 11.91L26.23 11.91Q26.02 12.48 25.67 12.89L25.67 12.89L25.67 12.89Q25.31 13.29 24.83 13.51L24.83 13.51L24.83 13.51Q24.36 13.73 23.84 13.73L23.84 13.73L23.84 13.73Q23.62 13.73 23.36 13.68L23.36 13.68L23.36 13.68Q23.10 13.62 22.84 13.51L22.84 13.51L22.84 13.51Q22.58 13.39 22.33 13.20L22.33 13.20L22.33 13.20Q22.09 13.01 21.90 12.73L21.90 12.73L21.90 12.73Q21.70 12.45 21.59 12.07L21.59 12.07L21.59 12.07Q21.48 11.70 21.49 11.20L21.49 11.20L21.49 11.20Q21.49 10.64 21.62 10.18L21.62 10.18L21.62 10.18Q21.76 9.72 21.97 9.35L21.97 9.35L21.97 9.35Q22.19 8.99 22.46 8.72L22.46 8.72L22.46 8.72Q22.74 8.46 23.01 8.27L23.01 8.27L23.01 8.27Q23.28 8.09 23.54 8.00L23.54 8.00L23.54 8.00Q23.79 7.92 23.97 7.90L23.97 7.90L23.97 7.90Q24.07 7.90 24.06 7.92L24.06 7.92L24.06 7.92Q24.05 7.95 24.01 7.98L24.01 7.98L24.01 7.98Q23.97 8.02 23.94 8.05L23.94 8.05L23.94 8.05Q23.91 8.09 23.96 8.09L23.96 8.09L23.96 8.09Q24.01 8.11 24.04 8.12L24.04 8.12L24.04 8.12Q24.07 8.13 24.10 8.16L24.10 8.16L24.16 8.09L24.16 8.09Q24.21 8.06 24.25 8.06L24.25 8.06L24.25 8.06Q24.29 8.06 24.33 8.07L24.33 8.07L24.33 8.07Q24.36 8.08 24.38 8.08L24.38 8.08L24.38 8.08Q24.40 8.08 24.41 8.04L24.41 8.04L24.41 8.04Q24.42 7.96 24.46 7.95L24.46 7.95L24.46 7.95Q24.50 7.94 24.64 7.94L24.64 7.94L24.64 7.94Q24.72 7.94 24.89 7.99L24.89 7.99L24.89 7.99Q25.05 8.04 25.26 8.16L25.26 8.16L25.26 8.16Q25.46 8.27 25.67 8.47L25.67 8.47L25.67 8.47Q25.87 8.66 26.05 8.96L26.05 8.96L26.05 8.96Q26.22 9.26 26.33 9.67L26.33 9.67L26.33 9.67Q26.44 10.08 26.44 10.62ZM23.97 8.61L23.97 8.61L23.97 8.61Q23.73 8.76 23.50 9.00L23.50 9.00L23.50 9.00Q23.27 9.25 23.08 9.57L23.08 9.57L23.08 9.57Q22.89 9.89 22.78 10.29L22.78 10.29L22.78 10.29Q22.66 10.68 22.66 11.12L22.66 11.12L22.66 11.12Q22.66 11.59 22.75 11.98L22.75 11.98L22.75 11.98Q22.83 12.36 23.00 12.63L23.00 12.63L23.00 12.63Q23.16 12.90 23.40 13.05L23.40 13.05L23.40 13.05Q23.63 13.19 23.93 13.19L23.93 13.19L23.93 13.19Q24.20 13.19 24.46 13.04L24.46 13.04L24.46 13.04Q24.73 12.89 24.93 12.59L24.93 12.59L24.93 12.59Q25.14 12.29 25.26 11.85L25.26 11.85L25.26 11.85Q25.39 11.40 25.39 10.81L25.39 10.81L25.39 10.81Q25.39 10.22 25.23 9.82L25.23 9.82L25.23 9.82Q25.07 9.41 24.88 9.16L24.88 9.16L24.88 9.16Q24.68 8.91 24.51 8.81L24.51 8.81L24.51 8.81Q24.33 8.70 24.29 8.70L24.29 8.70L24.29 8.70Q24.19 8.70 24.14 8.70L24.14 8.70L24.14 8.70Q24.09 8.70 23.97 8.61ZM30.74 8.59L30.74 8.59L30.74 8.59Q30.73 8.78 30.70 8.98L30.70 8.98L30.70 8.98Q30.67 9.17 30.62 9.35L30.62 9.35L30.62 9.35Q30.56 9.52 30.48 9.66L30.48 9.66L30.48 9.66Q30.41 9.80 30.31 9.88L30.31 9.88L30.31 9.88Q30.23 9.95 30.18 9.95L30.18 9.95L30.18 9.95Q30.13 9.95 30.10 9.92L30.10 9.92L30.10 9.92Q30.07 9.89 30.05 9.86L30.05 9.86L30.05 9.86Q30.03 9.82 30.00 9.82L30.00 9.82L30.00 9.82Q29.97 9.81 29.92 9.82L29.92 9.82L29.92 9.82Q29.88 9.83 29.84 9.82L29.84 9.82L29.84 9.82Q29.79 9.82 29.75 9.77L29.75 9.77L29.75 9.77Q29.72 9.73 29.70 9.61L29.70 9.61L29.70 9.61Q29.69 9.48 29.71 9.27L29.71 9.27L29.71 9.27Q29.74 9.06 29.74 8.87L29.74 8.87L29.74 8.87Q29.74 8.69 29.70 8.57L29.70 8.57L29.70 8.57Q29.66 8.45 29.57 8.45L29.57 8.45L29.57 8.45Q29.52 8.45 29.40 8.52L29.40 8.52L29.40 8.52Q29.28 8.59 29.13 8.83L29.13 8.83L29.13 8.83Q28.99 9.06 28.85 9.50L28.85 9.50L28.85 9.50Q28.70 9.94 28.62 10.67L28.62 10.67L28.62 10.67Q28.62 11.61 28.63 12.19L28.63 12.19L28.63 12.19Q28.64 12.76 28.64 13.08L28.64 13.08L28.64 13.08Q28.64 13.36 28.63 13.47L28.63 13.47L28.63 13.47Q28.62 13.59 28.56 13.62L28.56 13.62L28.56 13.62Q28.53 13.64 28.43 13.68L28.43 13.68L28.43 13.68Q28.33 13.71 28.22 13.73L28.22 13.73L28.22 13.73Q28.10 13.76 28 13.78L28 13.78L28 13.78Q27.90 13.80 27.87 13.79L27.87 13.79L27.87 13.79Q27.85 13.79 27.79 13.75L27.79 13.75L27.79 13.75Q27.74 13.71 27.68 13.66L27.68 13.66L27.68 13.66Q27.62 13.60 27.58 13.55L27.58 13.55L27.58 13.55Q27.53 13.49 27.52 13.45L27.52 13.45L27.52 13.45Q27.51 13.38 27.51 13.14L27.51 13.14L27.51 13.14Q27.51 12.89 27.52 12.55L27.52 12.55L27.52 12.55Q27.52 12.21 27.53 11.80L27.53 11.80L27.53 11.80Q27.54 11.40 27.54 10.99L27.54 10.99L27.54 10.99Q27.54 10.73 27.55 10.41L27.55 10.41L27.55 10.41Q27.57 10.10 27.59 9.77L27.59 9.77L27.59 9.77Q27.62 9.44 27.64 9.13L27.64 9.13L27.64 9.13Q27.67 8.81 27.70 8.56L27.70 8.56L27.70 8.56Q27.72 8.31 27.74 8.15L27.74 8.15L27.74 8.15Q27.75 7.98 27.76 7.94L27.76 7.94L27.76 7.94Q27.77 7.89 27.81 7.90L27.81 7.90L27.81 7.90Q27.86 7.92 27.91 7.95L27.91 7.95L27.91 7.95Q27.96 7.98 28 8.01L28 8.01L28 8.01Q28.04 8.04 28.05 8.01L28.05 8.01L28.05 8.01Q28.07 7.95 28.16 7.99L28.16 7.99L28.16 7.99Q28.25 8.04 28.32 8.09L28.32 8.09L28.32 8.09Q28.35 8.13 28.39 8.15L28.39 8.15L28.39 8.15Q28.42 8.18 28.46 8.21L28.46 8.21L28.46 8.21Q28.49 8.25 28.52 8.31L28.52 8.31L28.52 8.31Q28.54 8.37 28.54 8.48L28.54 8.48L28.54 8.48Q28.54 8.57 28.55 8.76L28.55 8.76L28.55 8.76Q28.57 8.96 28.59 9.21L28.59 9.21L28.59 9.21Q28.66 8.97 28.77 8.70L28.77 8.70L28.77 8.70Q28.88 8.42 29.03 8.19L29.03 8.19L29.03 8.19Q29.18 7.96 29.38 7.81L29.38 7.81L29.38 7.81Q29.59 7.66 29.87 7.66L29.87 7.66L29.87 7.66Q30.03 7.66 30.19 7.72L30.19 7.72L30.19 7.72Q30.34 7.79 30.47 7.91L30.47 7.91L30.47 7.91Q30.60 8.03 30.67 8.20L30.67 8.20L30.67 8.20Q30.75 8.37 30.74 8.59ZM35.33 9.50L35.33 9.50L35.33 9.50Q35.34 9.73 35.29 10.08L35.29 10.08L35.29 10.08Q35.25 10.42 35.18 10.82L35.18 10.82L35.18 10.82Q35.12 11.21 35.07 11.62L35.07 11.62L35.07 11.62Q35.01 12.03 35.01 12.39L35.01 12.39L35.01 12.39Q35.01 12.63 35.05 12.85L35.05 12.85L35.05 12.85Q35.08 13.06 35.16 13.22L35.16 13.22L35.16 13.22Q35.21 13.31 35.22 13.38L35.22 13.38L35.22 13.38Q35.22 13.45 35.21 13.50L35.21 13.50L35.21 13.50Q35.19 13.55 35.18 13.59L35.18 13.59L35.18 13.59Q35.16 13.62 35.18 13.66L35.18 13.66L35.18 13.66Q35.19 13.69 35.17 13.74L35.17 13.74L35.17 13.74Q35.15 13.78 35.11 13.82L35.11 13.82L35.11 13.82Q35.07 13.86 35.02 13.87L35.02 13.87L35.02 13.87Q34.97 13.89 34.92 13.86L34.92 13.86L34.92 13.86Q34.85 13.82 34.81 13.81L34.81 13.81L34.81 13.81Q34.76 13.80 34.73 13.81L34.73 13.81L34.73 13.81Q34.70 13.82 34.68 13.84L34.68 13.84L34.68 13.84Q34.65 13.85 34.62 13.84L34.62 13.84L34.62 13.84Q34.50 13.77 34.36 13.69L34.36 13.69L34.36 13.69Q34.23 13.61 34.19 13.51L34.19 13.51L34.19 13.51Q34.16 13.47 34.14 13.38L34.14 13.38L34.14 13.38Q34.11 13.28 34.09 13.15L34.09 13.15L34.09 13.15Q34.08 13.02 34.06 12.87L34.06 12.87L34.06 12.87Q34.05 12.72 34.04 12.58L34.04 12.58L34.04 12.58Q33.82 13.00 33.56 13.28L33.56 13.28L33.56 13.28Q33.30 13.56 33.05 13.73L33.05 13.73L33.05 13.73Q32.79 13.90 32.54 13.97L32.54 13.97L32.54 13.97Q32.29 14.03 32.09 14.03L32.09 14.03L32.09 14.03Q31.88 14.03 31.72 13.98L31.72 13.98L31.72 13.98Q31.55 13.92 31.47 13.85L31.47 13.85L31.47 13.85Q31.13 13.51 30.99 13.31L30.99 13.31L30.99 13.31Q30.85 13.10 30.86 12.97L30.86 12.97L30.86 12.97Q30.90 12.53 31.08 12.16L31.08 12.16L31.08 12.16Q31.25 11.79 31.52 11.48L31.52 11.48L31.52 11.48Q31.79 11.17 32.12 10.92L32.12 10.92L32.12 10.92Q32.45 10.67 32.80 10.48L32.80 10.48L32.80 10.48Q33.14 10.28 33.48 10.15L33.48 10.15L33.48 10.15Q33.81 10.01 34.08 9.93L34.08 9.93L34.08 9.93Q34.07 9.56 34.05 9.29L34.05 9.29L34.05 9.29Q34.04 9.01 34.00 8.88L34.00 8.88L34.00 8.88Q33.90 8.46 33.69 8.25L33.69 8.25L33.69 8.25Q33.48 8.04 33.17 8.04L33.17 8.04L33.17 8.04Q32.98 8.04 32.79 8.18L32.79 8.18L32.79 8.18Q32.59 8.33 32.44 8.57L32.44 8.57L32.44 8.57Q32.28 8.82 32.18 9.14L32.18 9.14L32.18 9.14Q32.08 9.46 32.07 9.82L32.07 9.82L32.07 9.82Q32.07 9.91 32.08 9.99L32.08 9.99L32.08 9.99Q32.09 10.07 32.10 10.16L32.10 10.16L32.10 10.16Q32.11 10.21 32.07 10.23L32.07 10.23L32.07 10.23Q32.03 10.25 31.98 10.26L31.98 10.26L31.98 10.26Q31.92 10.27 31.86 10.27L31.86 10.27L31.86 10.27Q31.80 10.28 31.76 10.29L31.76 10.29L31.76 10.29Q31.73 10.31 31.71 10.31L31.71 10.31L31.71 10.31Q31.68 10.32 31.66 10.31L31.66 10.31L31.66 10.31Q31.64 10.29 31.61 10.27L31.61 10.27L31.61 10.27Q31.58 10.24 31.53 10.20L31.53 10.20L31.53 10.20Q31.47 10.16 31.41 10.13L31.41 10.13L31.41 10.13Q31.36 10.10 31.31 10.08L31.31 10.08L31.31 10.08Q31.27 10.06 31.24 10.05L31.24 10.05L31.24 10.05Q31.21 10.03 31.21 10.00L31.21 10.00L31.21 10.00Q31.21 9.58 31.39 9.13L31.39 9.13L31.39 9.13Q31.58 8.67 31.90 8.30L31.90 8.30L31.90 8.30Q32.22 7.93 32.64 7.69L32.64 7.69L32.64 7.69Q33.06 7.45 33.53 7.45L33.53 7.45L33.53 7.45Q33.91 7.45 34.19 7.57L34.19 7.57L34.19 7.57Q34.47 7.68 34.67 7.87L34.67 7.87L34.67 7.87Q34.87 8.05 35.00 8.28L35.00 8.28L35.00 8.28Q35.12 8.50 35.19 8.73L35.19 8.73L35.19 8.73Q35.27 8.96 35.30 9.16L35.30 9.16L35.30 9.16Q35.33 9.37 35.33 9.50ZM34.10 11.39L34.10 10.71L34.10 10.71Q33.89 10.79 33.65 10.91L33.65 10.91L33.65 10.91Q33.40 11.03 33.15 11.20L33.15 11.20L33.15 11.20Q32.89 11.37 32.64 11.59L32.64 11.59L32.64 11.59Q32.39 11.81 32.17 12.07L32.17 12.07L32.17 12.07Q31.91 12.38 31.79 12.62L31.79 12.62L31.79 12.62Q31.68 12.86 31.65 13.03L31.65 13.03L31.65 13.03Q31.62 13.19 31.66 13.29L31.66 13.29L31.66 13.29Q31.71 13.38 31.76 13.41L31.76 13.41L31.76 13.41Q31.97 13.49 32.20 13.42L32.20 13.42L32.20 13.42Q32.43 13.36 32.66 13.19L32.66 13.19L32.66 13.19Q32.89 13.02 33.10 12.79L33.10 12.79L33.10 12.79Q33.32 12.55 33.51 12.30L33.51 12.30L33.51 12.30Q33.70 12.05 33.85 11.81L33.85 11.81L33.85 11.81Q34.00 11.57 34.10 11.39L34.10 11.39ZM40.63 13.04L40.63 13.04L40.63 13.04Q40.67 13.10 40.66 13.16L40.66 13.16L40.66 13.16Q40.65 13.22 40.61 13.27L40.61 13.27L40.61 13.27Q40.56 13.32 40.51 13.34L40.51 13.34L40.51 13.34Q40.45 13.36 40.40 13.34L40.40 13.34L40.40 13.34Q40.30 13.32 40.20 13.36L40.20 13.36L40.20 13.36Q40.09 13.40 40.05 13.43L40.05 13.43L40.05 13.43Q40.01 13.47 40.03 13.52L40.03 13.52L40.03 13.52Q40.06 13.57 40.09 13.62L40.09 13.62L40.09 13.62Q40.15 13.69 40.10 13.77L40.10 13.77L40.10 13.77Q40.05 13.85 39.96 13.84L39.96 13.84L39.96 13.84Q39.92 13.84 39.80 13.71L39.80 13.71L39.80 13.71Q39.69 13.58 39.54 13.38L39.54 13.38L39.54 13.38Q39.38 13.19 39.20 12.93L39.20 12.93L39.20 12.93Q39.03 12.67 38.85 12.41L38.85 12.41L38.85 12.41Q38.66 12.15 38.50 11.89L38.50 11.89L38.50 11.89Q38.33 11.64 38.21 11.44L38.21 11.44L38.21 11.44Q38.06 11.63 37.87 11.85L37.87 11.85L37.87 11.85Q37.68 12.07 37.49 12.30L37.49 12.30L37.49 12.30Q37.30 12.53 37.12 12.75L37.12 12.75L37.12 12.75Q36.94 12.96 36.80 13.13L36.80 13.13L36.80 13.13Q36.65 13.30 36.56 13.40L36.56 13.40L36.56 13.40Q36.46 13.51 36.44 13.51L36.44 13.51L36.44 13.51Q36.37 13.56 36.32 13.62L36.32 13.62L36.32 13.62Q36.26 13.69 36.16 13.71L36.16 13.71L36.16 13.71Q36.11 13.72 36.08 13.70L36.08 13.70L36.08 13.70Q36.04 13.69 36.00 13.66L36.00 13.66L36.00 13.66Q35.97 13.64 35.94 13.62L35.94 13.62L35.94 13.62Q35.90 13.60 35.87 13.61L35.87 13.61L35.87 13.61Q35.80 13.61 35.77 13.50L35.77 13.50L35.77 13.50Q35.73 13.40 35.83 13.26L35.83 13.26L35.83 13.26Q35.83 13.25 35.94 13.12L35.94 13.12L35.94 13.12Q36.04 13.00 36.20 12.79L36.20 12.79L36.20 12.79Q36.36 12.59 36.57 12.34L36.57 12.34L36.57 12.34Q36.77 12.09 36.99 11.82L36.99 11.82L36.99 11.82Q37.21 11.56 37.42 11.31L37.42 11.31L37.42 11.31Q37.63 11.05 37.81 10.86L37.81 10.86L37.81 10.86Q37.60 10.55 37.34 10.17L37.34 10.17L37.34 10.17Q37.09 9.78 36.85 9.43L36.85 9.43L36.85 9.43Q36.61 9.08 36.43 8.81L36.43 8.81L36.43 8.81Q36.24 8.54 36.16 8.46L36.16 8.46L36.16 8.46Q36.09 8.39 36.05 8.33L36.05 8.33L36.05 8.33Q36.01 8.27 36.00 8.23L36.00 8.23L36.00 8.23Q36.00 8.19 36.06 8.18L36.06 8.18L36.06 8.18Q36.09 8.18 36.10 8.15L36.10 8.15L36.10 8.15Q36.11 8.11 36.12 8.08L36.12 8.08L36.12 8.08Q36.13 8.05 36.15 8.03L36.15 8.03L36.15 8.03Q36.16 8.00 36.20 7.98L36.20 7.98L36.20 7.98Q36.28 7.96 36.40 7.96L36.40 7.96L36.40 7.96Q36.53 7.96 36.61 7.93L36.61 7.93L36.61 7.93Q36.70 7.91 36.73 7.93L36.73 7.93L36.73 7.93Q36.76 7.95 36.82 8.01L36.82 8.01L36.82 8.01Q36.84 8.04 36.84 8.03L36.84 8.03L36.84 8.03Q36.85 8.03 36.85 8.00L36.85 8.00L36.85 8.00Q36.85 7.98 36.85 7.96L36.85 7.96L36.85 7.96Q36.86 7.94 36.89 7.93L36.89 7.93L36.89 7.93Q36.95 7.91 36.98 7.90L36.98 7.90L36.98 7.90Q37.01 7.90 37.03 7.83L37.03 7.83L37.03 7.83Q37.04 7.76 37.05 7.76L37.05 7.76L37.05 7.76Q37.06 7.77 37.14 7.83L37.14 7.83L37.14 7.83Q37.17 7.87 37.32 8.07L37.32 8.07L37.32 8.07Q37.47 8.27 37.68 8.58L37.68 8.58L37.68 8.58Q37.89 8.88 38.13 9.24L38.13 9.24L38.13 9.24Q38.36 9.60 38.57 9.95L38.57 9.95L38.57 9.95Q38.77 9.67 39.03 9.32L39.03 9.32L39.03 9.32Q39.28 8.98 39.52 8.66L39.52 8.66L39.52 8.66Q39.76 8.35 39.97 8.12L39.97 8.12L39.97 8.12Q40.17 7.89 40.28 7.83L40.28 7.83L40.28 7.83Q40.35 7.79 40.39 7.77L40.39 7.77L40.39 7.77Q40.42 7.76 40.44 7.76L40.44 7.76L40.44 7.76Q40.48 7.76 40.52 7.80L40.52 7.80L40.52 7.80Q40.58 7.83 40.64 7.85L40.64 7.85L40.64 7.85Q40.69 7.87 40.74 7.93L40.74 7.93L40.74 7.93Q40.79 7.99 40.80 8.06L40.80 8.06L40.80 8.06Q40.80 8.12 40.78 8.20L40.78 8.20L40.78 8.20Q40.77 8.23 40.66 8.39L40.66 8.39L40.66 8.39Q40.56 8.56 40.34 8.85L40.34 8.85L40.34 8.85Q40.11 9.15 39.77 9.57L39.77 9.57L39.77 9.57Q39.42 10.00 38.93 10.58L38.93 10.58L38.93 10.58Q39.07 10.81 39.24 11.08L39.24 11.08L39.24 11.08Q39.41 11.35 39.59 11.61L39.59 11.61L39.59 11.61Q39.77 11.87 39.94 12.12L39.94 12.12L39.94 12.12Q40.11 12.36 40.26 12.55L40.26 12.55L40.26 12.55Q40.40 12.75 40.50 12.88L40.50 12.88L40.50 12.88Q40.60 13.01 40.63 13.04Z"></path></g><!----><!----></svg>