<svg data-v-fde0c5aa="" xmlns="http://www.w3.org/2000/svg" viewBox="0 0 300 300" class="iconLeftSlogan"><!----><defs data-v-fde0c5aa=""><linearGradient data-v-fde0c5aa="" gradientTransform="rotate(25)" id="9e2e3166-78ae-43aa-b5d3-d4d5eeba98c9" x1="0%" y1="0%" x2="100%" y2="0%"><stop data-v-fde0c5aa="" offset="0%" stop-color="#30092A" stop-opacity="1"></stop><stop data-v-fde0c5aa="" offset="100%" stop-color="#CB3C61" stop-opacity="1"></stop></linearGradient></defs><rect data-v-fde0c5aa="" fill="url(#9e2e3166-78ae-43aa-b5d3-d4d5eeba98c9)" x="0" y="0" width="300px" height="300px" class="logo-background-square"></rect><defs data-v-fde0c5aa=""><!----></defs><g data-v-fde0c5aa="" id="9f500d92-95a0-4a57-ae16-cac9b1feaa8f" fill="#ffffff" transform="matrix(2.496752622201265,0,0,2.496752622201265,114.31449247120382,122.66005250790383)"><path d="M6.30 1.69L6.85 3.35L7.85 3.19L7.85 0.70L0.64 0.70L0.49 1.69L1.67 2.16L1.67 9.07L0.52 9.51L0.66 10.50L8.09 10.50L8.09 7.55L7.10 7.41L6.36 9.51L3.60 9.51L3.60 6.01L5.04 6.01L5.47 7.14L6.47 7L6.47 3.91L5.46 3.77L5.04 4.90L3.60 4.90L3.60 1.69ZM16.18 4.82L16.02 3.96L13.26 3.96L13.09 4.82L13.86 5.12L12.57 6.72L12.57 6.12L11.89 5.12L12.60 4.82L12.43 3.96L8.95 3.96L8.78 4.82L9.77 5.12L11.34 7.42L9.79 9.34L8.72 9.65L8.89 10.50L11.55 10.50L11.72 9.65L11.05 9.34L12.28 7.85L12.28 8.37L12.96 9.34L12.25 9.65L12.42 10.50L15.93 10.50L16.10 9.65L15.05 9.34L13.50 7.15L15.13 5.12ZM19.63 10.50L19.92 10.50C22.09 10.50 23.80 9.11 23.80 7.04C23.80 4.89 22.60 3.81 20.61 3.81C19.99 3.81 19.26 4.05 18.83 4.24L18.23 3.81L16.35 3.96L16.52 4.82L17.29 4.82L17.29 12.68L16.41 12.99L16.58 13.85L19.77 13.85L19.94 12.99L19.04 12.68L19.04 5.10C19.52 4.91 20.03 4.82 20.50 4.82C21.28 4.82 21.88 5.32 21.88 6.94C21.88 8.62 20.80 9.65 19.89 9.65L19.63 9.65ZM27.65 9.34L27.65 0.25L26.82 0.04L25.00 0.25L25.16 1.05L25.89 1.05L25.89 9.34L24.92 9.65L25.09 10.50L28.45 10.50L28.62 9.65ZM33.24 3.81C31.11 3.81 29.74 5.14 29.74 7.22C29.74 9.31 30.98 10.64 33.24 10.64C35.50 10.64 36.72 9.37 36.72 7.22C36.72 5.08 35.35 3.81 33.24 3.81ZM33.24 4.69C34.27 4.69 34.94 5.61 34.94 7.18C34.94 8.74 34.30 9.76 33.24 9.76C32.14 9.76 31.54 8.72 31.54 7.18C31.54 5.64 32.20 4.69 33.24 4.69ZM43.50 5.74L43.50 4.12C42.97 3.91 42.49 3.81 42.06 3.81C41.41 3.81 40.68 4.02 40.25 4.17L39.68 3.81L37.86 3.96L38.02 4.82L38.65 4.82L38.65 9.34L37.77 9.65L37.94 10.50L41.41 10.50L41.58 9.65L40.42 9.34L40.42 5.10C40.82 4.94 41.40 4.82 41.68 4.82C41.87 4.82 42.14 4.84 42.24 4.87L42.56 5.91ZM44.59 5.74L45.53 5.91L45.84 4.84C46.10 4.77 46.54 4.69 46.87 4.69C47.49 4.69 48.06 5.08 48.06 5.88L48.06 6.37C46.30 6.37 44.07 6.80 44.07 8.71C44.07 9.98 45.18 10.65 46.44 10.65C47.25 10.65 47.82 10.47 48.24 10.18L48.66 10.50L50.44 10.50L50.61 9.65L49.83 9.34L49.83 6.44C49.83 4.75 48.75 3.81 46.94 3.81C46.24 3.81 45.40 3.99 44.59 4.40ZM48.06 9.07C47.82 9.42 47.33 9.63 46.96 9.63C46.56 9.63 45.99 9.38 45.99 8.58C45.99 7.78 46.76 7.24 48.06 7.24ZM58.35 4.82L58.18 3.96L55.43 3.96L55.26 4.82L56.03 5.12L54.74 6.72L54.74 6.12L54.05 5.12L54.77 4.82L54.60 3.96L51.11 3.96L50.95 4.82L51.94 5.12L53.51 7.42L51.95 9.34L50.89 9.65L51.06 10.50L53.72 10.50L53.89 9.65L53.21 9.34L54.45 7.85L54.45 8.37L55.13 9.34L54.42 9.65L54.59 10.50L58.10 10.50L58.27 9.65L57.22 9.34L55.66 7.15L57.30 5.12Z"></path></g><defs data-v-fde0c5aa=""><!----></defs><g data-v-fde0c5aa="" id="fb8f0718-9f06-4794-a31f-54640c6e4cad" stroke="none" fill="#ffffff" transform="matrix(1.9543094149966667,0,0,1.9543094149966667,40,118.73104936005333)"><path d="M9.382 8.675h13.943v13.943L32 31.293V0H.707zM22.618 23.325H8.675V9.382L0 .707V32h31.293z"></path></g><defs data-v-fde0c5aa=""><!----></defs><g data-v-fde0c5aa="" id="7f399eed-eede-4362-9a00-89a7a88a3ab0" fill="#ffffff" transform="matrix(0.32562912245866243,0,0,0.32562912245866243,115.16994037306776,166.5562562540305)"><path d="M5.04 2.21L1.13 2.21L1.13 11.48L5.04 11.48C7.25 11.48 9.30 9.74 9.30 6.85C9.30 3.95 7.25 2.21 5.04 2.21ZM5.00 10.49L2.18 10.49L2.18 3.21L5.00 3.21C6.97 3.21 8.25 4.86 8.25 6.85C8.25 8.83 6.97 10.49 5.00 10.49ZM21.97 2.21L20.65 2.21L16.72 11.48L17.88 11.48L19.01 8.79L23.60 8.79L24.74 11.48L25.90 11.48ZM19.42 7.83L21.31 3.30L23.20 7.83ZM39.19 3.70L41.69 11.48L42.88 11.48L45.77 2.21L44.66 2.21L42.28 10.00L39.79 2.21L38.58 2.21L36.09 10.00L33.71 2.21L32.61 2.21L35.49 11.48L36.68 11.48ZM60.97 2.21L60.97 10.01L55.24 2.21L54.03 2.21L54.03 11.48L55.08 11.48L55.08 3.65L60.80 11.48L62.02 11.48L62.02 2.21ZM85.39 2.10C82.57 2.10 80.68 4.21 80.68 6.85C80.68 9.48 82.57 11.59 85.39 11.59C88.20 11.59 90.09 9.48 90.09 6.85C90.09 4.21 88.20 2.10 85.39 2.10ZM85.39 10.57C83.13 10.57 81.73 8.93 81.73 6.85C81.73 4.76 83.13 3.12 85.39 3.12C87.64 3.12 89.04 4.76 89.04 6.85C89.04 8.93 87.64 10.57 85.39 10.57ZM105.46 3.22L105.46 2.21L98.77 2.21L98.77 11.48L99.82 11.48L99.82 7.46L104.85 7.46L104.85 6.44L99.82 6.44L99.82 3.22ZM127.82 2.21L123.91 2.21L123.91 11.48L127.82 11.48C130.03 11.48 132.08 9.74 132.08 6.85C132.08 3.95 130.03 2.21 127.82 2.21ZM127.78 10.49L124.96 10.49L124.96 3.21L127.78 3.21C129.75 3.21 131.03 4.86 131.03 6.85C131.03 8.83 129.75 10.49 127.78 10.49ZM141.82 2.21L140.77 2.21L140.77 11.48L141.82 11.48ZM157.78 3.22L157.78 2.21L151.09 2.21L151.09 11.48L152.14 11.48L152.14 7.46L157.16 7.46L157.16 6.44L152.14 6.44L152.14 3.22ZM172.94 3.22L172.94 2.21L166.25 2.21L166.25 11.48L167.30 11.48L167.30 7.46L172.33 7.46L172.33 6.44L167.30 6.44L167.30 3.22ZM188.23 3.22L188.23 2.21L181.41 2.21L181.41 11.48L188.23 11.48L188.23 10.47L182.46 10.47L182.46 7.35L187.61 7.35L187.61 6.33L182.46 6.33L182.46 3.22ZM197.97 7.92L201.19 7.92L203.43 11.48L204.68 11.48L202.24 7.74C203.28 7.50 204.48 6.90 204.48 5.11C204.48 3.35 203.27 2.21 201.36 2.21L196.92 2.21L196.92 11.48L197.97 11.48ZM197.97 3.21L201.24 3.21C202.55 3.21 203.43 3.93 203.43 5.11C203.43 6.55 202.17 6.93 201.18 6.93L197.97 6.93ZM220.11 3.22L220.11 2.21L213.29 2.21L213.29 11.48L220.11 11.48L220.11 10.47L214.34 10.47L214.34 7.35L219.49 7.35L219.49 6.33L214.34 6.33L214.34 3.22ZM235.75 2.21L235.75 10.01L230.02 2.21L228.80 2.21L228.80 11.48L229.85 11.48L229.85 3.65L235.58 11.48L236.80 11.48L236.80 2.21ZM252.64 2.21L245.13 2.21L245.13 3.22L248.36 3.22L248.36 11.48L249.41 11.48L249.41 3.22L252.64 3.22ZM272.01 8.18L275.13 8.18C277.10 8.18 278.32 7.03 278.32 5.19C278.32 3.37 277.10 2.21 275.13 2.21L270.96 2.21L270.96 11.48L272.01 11.48ZM275.06 3.21C276.51 3.21 277.27 3.96 277.27 5.19C277.27 6.44 276.51 7.20 275.06 7.20L272.01 7.20L272.01 3.21ZM290.86 2.10C288.05 2.10 286.16 4.21 286.16 6.85C286.16 9.48 288.05 11.59 290.86 11.59C293.68 11.59 295.57 9.48 295.57 6.85C295.57 4.21 293.68 2.10 290.86 2.10ZM290.86 10.57C288.61 10.57 287.21 8.93 287.21 6.85C287.21 4.76 288.61 3.12 290.86 3.12C293.12 3.12 294.52 4.76 294.52 6.85C294.52 8.93 293.12 10.57 290.86 10.57ZM304.86 4.65C304.86 4.03 305.23 3.08 307.33 3.08C309.02 3.08 309.81 3.82 309.92 4.75L311.00 4.75C310.91 3.36 309.79 2.10 307.33 2.10C305.00 2.10 303.84 3.15 303.84 4.66C303.84 7.84 310.18 6.69 310.18 8.96C310.18 10.05 309.20 10.60 307.64 10.60C306.03 10.60 304.72 10.05 304.65 8.71L303.56 8.71C303.70 10.37 304.82 11.59 307.57 11.59C309.85 11.59 311.23 10.64 311.23 8.92C311.23 5.68 304.86 6.80 304.86 4.65ZM320.47 4.65C320.47 4.03 320.84 3.08 322.94 3.08C324.63 3.08 325.42 3.82 325.53 4.75L326.61 4.75C326.52 3.36 325.40 2.10 322.94 2.10C320.61 2.10 319.45 3.15 319.45 4.66C319.45 7.84 325.79 6.69 325.79 8.96C325.79 10.05 324.81 10.60 323.25 10.60C321.64 10.60 320.33 10.05 320.26 8.71L319.17 8.71C319.31 10.37 320.43 11.59 323.18 11.59C325.46 11.59 326.84 10.64 326.84 8.92C326.84 5.68 320.47 6.80 320.47 4.65ZM336.52 2.21L335.47 2.21L335.47 11.48L336.52 11.48ZM351.62 6.75C352.28 6.45 352.87 5.85 352.87 4.66C352.87 3.54 352.13 2.21 349.94 2.21L345.79 2.21L345.79 11.48L350.18 11.48C352.30 11.48 353.35 10.43 353.35 9.04C353.35 7.66 352.41 7 351.62 6.75ZM346.84 3.21L350.06 3.21C351.33 3.21 351.82 3.98 351.82 4.75C351.82 5.88 350.91 6.36 349.94 6.36L346.84 6.36ZM350.29 10.49L346.84 10.49L346.84 7.31L350.18 7.31C351.65 7.31 352.30 8.09 352.30 8.96C352.30 9.93 351.57 10.49 350.29 10.49ZM363.10 2.21L362.05 2.21L362.05 11.48L363.10 11.48ZM372.37 2.21L372.37 11.48L378.48 11.48L378.48 10.47L373.42 10.47L373.42 2.21ZM387.88 2.21L386.83 2.21L386.83 11.48L387.88 11.48ZM403.73 2.21L396.21 2.21L396.21 3.22L399.45 3.22L399.45 11.48L400.50 11.48L400.50 3.22L403.73 3.22ZM413.11 2.21L412.06 2.21L412.06 11.48L413.11 11.48ZM429.20 3.22L429.20 2.21L422.38 2.21L422.38 11.48L429.20 11.48L429.20 10.47L423.43 10.47L423.43 7.35L428.58 7.35L428.58 6.33L423.43 6.33L423.43 3.22ZM438.40 4.65C438.40 4.03 438.76 3.08 440.86 3.08C442.55 3.08 443.34 3.82 443.45 4.75L444.53 4.75C444.44 3.36 443.32 2.10 440.86 2.10C438.54 2.10 437.37 3.15 437.37 4.66C437.37 7.84 443.72 6.69 443.72 8.96C443.72 10.05 442.74 10.60 441.17 10.60C439.56 10.60 438.26 10.05 438.19 8.71L437.09 8.71C437.23 10.37 438.35 11.59 441.10 11.59C443.38 11.59 444.77 10.64 444.77 8.92C444.77 5.68 438.40 6.80 438.40 4.65Z"></path></g></svg>